<?xml version="1.0" standalone="no"?>
<!DOCTYPE svg PUBLIC "-//W3C//DTD SVG 20010904//EN"
 "http://www.w3.org/TR/2001/REC-SVG-20010904/DTD/svg10.dtd">
<svg version="1.0" xmlns="http://www.w3.org/2000/svg"
 width="300.000000pt" height="300.000000pt" viewBox="0 0 300.000000 300.000000"
 preserveAspectRatio="xMidYMid meet">
<metadata>
Created by potrace 1.10, written by Peter Selinger 2001-2011
</metadata>
<g transform="translate(0.000000,300.000000) scale(0.100000,-0.100000)"
fill="#000000" stroke="none">
<path d="M590 1663 c-41 -21 -59 -61 -43 -96 11 -23 37 -36 127 -63 59 -18 60
-64 2 -92 -38 -19 -84 -6 -105 29 -9 16 -22 29 -28 29 -22 0 -14 -31 16 -61
25 -25 37 -29 81 -29 44 0 56 4 81 29 54 54 28 103 -71 135 -70 23 -92 45 -74
74 27 43 109 39 129 -6 13 -29 37 -29 33 -1 -7 51 -92 81 -148 52z"/>
<path d="M855 1673 c-35 -9 -65 -44 -65 -78 0 -41 23 -61 91 -81 30 -9 60 -21
67 -27 22 -18 10 -60 -22 -76 -41 -19 -103 0 -112 34 -7 26 -34 35 -34 11 0
-46 44 -76 113 -76 60 0 97 29 97 76 0 44 -22 63 -103 89 -54 17 -62 24 -65
47 -6 49 68 76 116 42 12 -8 22 -22 22 -30 0 -8 7 -14 15 -14 36 0 5 57 -40
76 -35 14 -45 15 -80 7z"/>
<path d="M2480 1673 c-8 -3 -25 -15 -37 -26 -49 -44 -14 -117 63 -131 54 -10
84 -32 84 -60 0 -32 -23 -48 -69 -50 -41 -1 -81 24 -81 51 0 7 -7 13 -15 13
-32 0 -14 -55 26 -75 74 -39 169 -5 169 61 0 43 -26 70 -82 84 -73 18 -88 28
-88 55 0 57 107 74 132 19 11 -24 38 -34 38 -13 0 49 -84 92 -140 72z"/>
<path d="M310 1525 l0 -145 100 0 c82 0 100 3 100 15 0 12 -16 15 -85 15 l-85
0 0 55 0 55 66 -2 c47 -2 68 1 71 10 4 9 -14 12 -66 12 l-71 0 0 50 0 50 85 0
c69 0 85 3 85 15 0 12 -18 15 -100 15 l-100 0 0 -145z"/>
<path d="M1050 1525 l0 -145 100 0 c82 0 100 3 100 15 0 12 -16 15 -85 15
l-85 0 0 53 0 54 67 -1 c44 -1 67 3 70 12 4 9 -14 12 -66 12 l-71 0 0 50 0 50
85 0 c69 0 85 3 85 15 0 12 -18 15 -100 15 l-100 0 0 -145z"/>
<path d="M1300 1525 c0 -125 2 -145 16 -145 13 0 15 16 12 115 -2 63 -1 115 2
115 3 -1 41 -52 84 -115 44 -63 86 -115 93 -115 10 0 13 32 13 145 0 126 -2
145 -16 145 -14 0 -16 -15 -13 -120 2 -65 1 -116 -2 -112 -3 4 -41 58 -84 120
-43 61 -84 112 -91 112 -11 0 -14 -29 -14 -145z"/>
<path d="M1560 1655 c0 -11 12 -15 50 -15 l50 0 0 -130 c0 -109 2 -130 15
-130 13 0 15 21 15 130 l0 130 50 0 c38 0 50 4 50 15 0 12 -19 15 -115 15 -96
0 -115 -3 -115 -15z"/>
<path d="M1830 1525 c0 -122 2 -145 15 -145 13 0 15 23 15 145 0 122 -2 145
-15 145 -13 0 -15 -23 -15 -145z"/>
<path d="M1966 1531 c-31 -76 -56 -141 -56 -145 0 -3 6 -6 14 -6 8 0 21 18 30
40 l16 41 72 -3 71 -3 12 -35 c6 -19 19 -36 28 -38 10 -2 17 0 17 4 0 4 -26
70 -57 146 -41 98 -62 138 -74 138 -12 0 -32 -39 -73 -139z m84 87 c0 -7 11
-39 24 -70 l24 -58 -58 0 -58 0 24 58 c13 31 24 63 24 70 0 6 5 12 10 12 6 0
10 -6 10 -12z"/>
<path d="M2210 1525 l0 -146 92 3 c62 2 93 7 96 16 3 9 -17 12 -78 12 l-81 0
3 130 c3 118 1 130 -14 130 -16 0 -18 -14 -18 -145z"/>
</g>
</svg>
